<?xml version="1.0" encoding="UTF-8"?>
<svg xmlns="http://www.w3.org/2000/svg" xmlns:xlink="http://www.w3.org/1999/xlink" width="74.25pt" height="63.75pt" viewBox="0 0 74.25 63.75" version="1.1">
<g id="surface1">
<path style="fill:none;stroke-width:2.26;stroke-linecap:round;stroke-linejoin:round;stroke:rgb(100%,50.195312%,0%);stroke-opacity:1;stroke-miterlimit:10;" d="M 6.074219 42.796875 L 5.804688 42.753906 L 5.894531 43.0625 L 6.34375 43.675781 L 7.152344 44.640625 L 8.410156 45.875 L 10.027344 47.191406 L 11.824219 48.554688 L 13.890625 50.046875 L 15.867188 51.453125 L 17.753906 52.773438 L 19.820312 53.960938 L 21.796875 54.835938 L 23.773438 55.496094 L 25.660156 55.804688 L 27.277344 55.804688 L 28.714844 55.496094 L 30.242188 55.058594 L 31.679688 54.53125 L 33.117188 53.960938 L 34.734375 53.257812 L 36.261719 52.464844 L 37.878906 51.671875 L 39.675781 50.707031 L 41.113281 50.003906 L 42.101562 49.433594 L 42.910156 48.90625 L 43.359375 48.6875 L 44.167969 48.378906 L 45.15625 48.113281 L 46.144531 47.851562 L 47.132812 47.632812 L 47.761719 47.542969 L 48.210938 47.453125 L 48.660156 47.367188 L 49.289062 47.28125 L 50.1875 47.148438 L 51.355469 47.101562 L 52.703125 47.058594 L 53.960938 47.058594 L 55.039062 47.148438 L 56.027344 47.28125 L 56.925781 47.410156 L 58.902344 47.761719 L 59.890625 48.027344 L 60.609375 48.246094 L 61.417969 48.554688 L 62.136719 48.859375 L 62.585938 49.082031 L 63.125 49.34375 L 63.394531 49.519531 L 63.664062 49.257812 L 63.753906 48.597656 L 64.023438 47.675781 L 64.382812 46.488281 L 65.011719 45.257812 L 65.640625 44.289062 L 66.269531 43.5 L 66.628906 43.0625 L 66.71875 42.839844 L 66.628906 42.488281 L 66.179688 41.960938 L 64.742188 40.554688 L 64.113281 40.027344 L 63.664062 39.546875 L 63.035156 38.972656 L 62.226562 38.3125 L 61.328125 37.523438 L 60.25 36.734375 L 59.261719 36.117188 L 58.183594 35.5 L 57.105469 34.929688 L 56.207031 34.445312 L 55.308594 33.964844 L 53.332031 32.996094 L 52.253906 32.558594 L 51.085938 32.207031 L 49.917969 32.03125 L 48.839844 31.898438 L 47.671875 31.8125 L 46.683594 31.722656 L 45.605469 31.589844 L 44.4375 31.460938 L 43.269531 31.371094 L 42.191406 31.328125 L 41.203125 31.28125 L 40.394531 31.238281 L 39.585938 31.238281 L 38.777344 31.328125 L 37.96875 31.460938 L 37.339844 31.632812 L 36.53125 31.898438 L 35.632812 32.292969 L 34.824219 32.6875 L 33.835938 33.128906 L 32.757812 33.570312 L 30.601562 34.273438 L 29.253906 34.625 L 27.996094 34.886719 L 26.648438 35.148438 L 25.300781 35.328125 L 24.042969 35.457031 L 22.785156 35.546875 L 21.617188 35.5 L 20.539062 35.371094 L 19.640625 35.105469 L 18.652344 34.796875 L 17.753906 34.492188 L 16.855469 34.140625 L 16.046875 33.742188 L 15.328125 33.347656 L 14.609375 32.996094 L 14.070312 32.6875 L 13.710938 32.558594 L 13.351562 32.558594 L 13.082031 32.734375 L 12.632812 33.085938 L 12.09375 33.65625 L 11.464844 34.226562 L 10.746094 34.976562 L 9.9375 35.722656 L 9.308594 36.335938 L 8.679688 37.039062 L 8.140625 37.742188 L 7.78125 38.359375 L 7.332031 39.148438 L 6.972656 40.027344 L 6.703125 40.773438 L 6.433594 41.65625 L 6.253906 42.269531 L 6.164062 42.664062 L 6.164062 42.929688 L 6.433594 43.0625 " transform="matrix(1,0,0,-1,0,63.75)"/>
<path style="fill:none;stroke-width:2.26;stroke-linecap:round;stroke-linejoin:round;stroke:rgb(100%,50.195312%,0%);stroke-opacity:1;stroke-miterlimit:10;" d="M 13.351562 50.09375 L 13.441406 50.355469 L 13.261719 49.742188 L 12.8125 48.378906 L 12.09375 46.445312 L 11.105469 44.335938 L 10.207031 41.960938 L 9.398438 40.027344 L 8.859375 38.492188 L 8.589844 37.480469 L 8.410156 37.039062 " transform="matrix(1,0,0,-1,0,63.75)"/>
<path style="fill:none;stroke-width:2.26;stroke-linecap:round;stroke-linejoin:round;stroke:rgb(100%,50.195312%,0%);stroke-opacity:1;stroke-miterlimit:10;" d="M 11.734375 35.195312 L 11.734375 35.632812 L 11.914062 36.554688 L 12.542969 38.492188 L 13.53125 41.171875 L 14.878906 44.46875 L 16.675781 48.027344 L 18.113281 50.882812 L 19.191406 52.90625 L 19.820312 54.046875 L 19.910156 54.355469 " transform="matrix(1,0,0,-1,0,63.75)"/>
<path style="fill:none;stroke-width:2.26;stroke-linecap:round;stroke-linejoin:round;stroke:rgb(100%,50.195312%,0%);stroke-opacity:1;stroke-miterlimit:10;" d="M 27.277344 55.847656 L 27.277344 55.453125 L 26.828125 54.355469 L 26.289062 52.992188 L 25.570312 51.367188 L 24.671875 49.125 L 23.773438 46.929688 L 22.785156 44.597656 L 21.886719 42.3125 L 21.167969 40.46875 L 20.628906 38.84375 L 20.179688 37.4375 L 19.730469 36.117188 L 19.550781 35.371094 L 19.460938 34.929688 " transform="matrix(1,0,0,-1,0,63.75)"/>
<path style="fill:none;stroke-width:2.26;stroke-linecap:round;stroke-linejoin:round;stroke:rgb(100%,50.195312%,0%);stroke-opacity:1;stroke-miterlimit:10;" d="M 30.601562 54.179688 L 30.511719 53.871094 L 30.152344 52.90625 L 29.523438 51.5 L 28.804688 49.914062 L 28.175781 48.507812 L 27.726562 47.410156 L 27.1875 46.046875 L 26.46875 44.027344 L 25.570312 41.742188 L 24.671875 39.367188 L 23.863281 37.65625 L 23.503906 36.6875 L 23.324219 36.292969 " transform="matrix(1,0,0,-1,0,63.75)"/>
<path style="fill:none;stroke-width:2.26;stroke-linecap:round;stroke-linejoin:round;stroke:rgb(100%,50.195312%,0%);stroke-opacity:1;stroke-miterlimit:10;" d="M 38.867188 51.277344 L 38.777344 50.882812 L 38.6875 50.53125 L 38.507812 50.09375 L 38.238281 49.082031 L 37.609375 47.410156 L 36.710938 45.214844 L 35.632812 42.664062 L 34.644531 40.335938 L 33.925781 38.535156 L 33.386719 37.214844 L 33.027344 36.292969 L 32.757812 35.808594 L 32.667969 35.5 L 32.757812 35.722656 " transform="matrix(1,0,0,-1,0,63.75)"/>
<path style="fill:none;stroke-width:2.26;stroke-linecap:round;stroke-linejoin:round;stroke:rgb(100%,50.195312%,0%);stroke-opacity:1;stroke-miterlimit:10;" d="M 41.203125 49.871094 L 41.113281 49.5625 L 40.933594 49.039062 L 40.753906 48.421875 L 40.304688 47.058594 L 39.675781 45.214844 L 38.867188 43.191406 L 37.789062 40.644531 L 36.890625 38.492188 L 36.082031 36.511719 L 35.453125 34.929688 L 35.09375 33.964844 L 35.003906 33.4375 L 35.09375 33.128906 " transform="matrix(1,0,0,-1,0,63.75)"/>
<path style="fill:none;stroke-width:2.26;stroke-linecap:round;stroke-linejoin:round;stroke:rgb(100%,50.195312%,0%);stroke-opacity:1;stroke-miterlimit:10;" d="M 50.277344 47.148438 L 50.367188 47.367188 L 50.1875 46.578125 L 49.648438 44.863281 L 48.929688 42.664062 L 48.121094 40.292969 L 47.132812 37.742188 L 46.234375 35.457031 L 45.425781 33.570312 L 44.796875 31.898438 L 44.527344 31.328125 L 44.707031 31.589844 " transform="matrix(1,0,0,-1,0,63.75)"/>
<path style="fill:none;stroke-width:2.26;stroke-linecap:round;stroke-linejoin:round;stroke:rgb(100%,50.195312%,0%);stroke-opacity:1;stroke-miterlimit:10;" d="M 53.78125 46.269531 L 53.691406 45.566406 L 53.601562 44.6875 L 53.332031 43.675781 L 53.242188 43.148438 L 52.972656 42.179688 L 52.613281 40.6875 L 51.894531 38.664062 L 51.085938 36.203125 L 50.457031 34.140625 L 49.917969 32.777344 L 49.828125 32.207031 " transform="matrix(1,0,0,-1,0,63.75)"/>
<path style="fill:none;stroke-width:2.26;stroke-linecap:round;stroke-linejoin:round;stroke:rgb(100%,50.195312%,0%);stroke-opacity:1;stroke-miterlimit:10;" d="M 61.957031 48.992188 L 61.957031 48.464844 L 61.867188 47.984375 L 61.777344 47.410156 L 61.507812 46.488281 L 61.238281 45.214844 L 60.878906 43.414062 L 60.519531 41.828125 L 60.25 40.601562 L 60.070312 39.808594 " transform="matrix(1,0,0,-1,0,63.75)"/>
<path style="fill:none;stroke-width:2.26;stroke-linecap:round;stroke-linejoin:round;stroke:rgb(100%,50.195312%,0%);stroke-opacity:1;stroke-miterlimit:10;" d="M 65.640625 47.234375 L 65.640625 46.929688 L 65.460938 46.398438 L 65.101562 45.566406 L 64.742188 44.203125 L 64.292969 42.710938 L 63.933594 41.390625 L 63.664062 40.46875 " transform="matrix(1,0,0,-1,0,63.75)"/>
<path style="fill:none;stroke-width:2.26;stroke-linecap:round;stroke-linejoin:round;stroke:rgb(0%,0%,0%);stroke-opacity:1;stroke-miterlimit:10;" d="M 12.183594 31.765625 L 12.003906 31.414062 L 11.914062 31.109375 L 11.914062 30.492188 L 12.003906 29.921875 L 12.09375 29.085938 L 12.183594 28.03125 L 12.183594 26.667969 L 12.273438 25.304688 L 12.363281 23.988281 L 12.363281 22.625 L 12.453125 21.484375 L 12.453125 20.382812 L 12.542969 19.460938 L 12.542969 18.714844 L 12.632812 17.96875 L 12.632812 17.21875 L 12.722656 16.472656 L 12.722656 15.683594 L 12.8125 15.023438 L 12.902344 14.40625 L 12.902344 10.980469 L 13.082031 10.71875 L 13.710938 10.71875 L 13.980469 10.804688 L 14.339844 10.890625 L 14.789062 10.9375 L 15.238281 10.9375 L 15.6875 10.980469 L 16.316406 10.980469 L 16.855469 10.9375 L 17.664062 10.980469 L 18.652344 10.980469 L 19.640625 11.023438 L 20.539062 11.113281 L 21.617188 11.113281 L 22.695312 11.199219 L 23.773438 11.242188 L 26.378906 11.242188 L 27.457031 11.289062 L 28.355469 11.289062 L 29.433594 11.242188 L 30.332031 11.199219 L 31.320312 11.113281 L 32.667969 11.023438 L 33.746094 10.980469 L 34.914062 10.9375 L 36.351562 10.890625 L 37.699219 10.847656 L 39.136719 10.890625 L 40.394531 10.980469 L 41.292969 11.023438 L 42.28125 11.070312 L 43.089844 11.113281 L 43.898438 11.113281 L 44.976562 11.199219 L 45.785156 11.199219 L 46.59375 11.242188 L 47.671875 11.199219 L 48.570312 11.15625 L 49.648438 11.113281 L 50.90625 10.980469 L 51.894531 10.847656 L 52.882812 10.71875 L 55.21875 10.71875 L 56.476562 10.804688 L 57.554688 10.9375 L 58.453125 10.980469 L 58.992188 11.023438 L 59.441406 11.023438 L 59.710938 10.9375 L 59.980469 10.890625 L 60.160156 11.421875 L 60.070312 12.210938 L 59.980469 13.574219 L 59.980469 15.023438 L 59.890625 16.386719 L 59.800781 17.527344 L 59.800781 21.4375 L 59.710938 22.097656 L 59.621094 22.890625 L 59.53125 23.769531 L 59.441406 24.691406 L 59.441406 25.484375 L 59.351562 26.230469 L 59.351562 26.976562 L 59.261719 27.765625 L 59.261719 28.648438 L 59.171875 29.480469 L 59.171875 30.273438 L 59.082031 30.976562 L 59.082031 32.382812 L 58.992188 32.601562 L 58.902344 32.910156 " transform="matrix(1,0,0,-1,0,63.75)"/>
<path style="fill:none;stroke-width:2.26;stroke-linecap:round;stroke-linejoin:round;stroke:rgb(0%,0%,0%);stroke-opacity:1;stroke-miterlimit:10;" d="M 20.089844 30.226562 L 19.820312 30.183594 L 19.550781 29.789062 L 19.191406 29.351562 L 19.011719 28.777344 L 18.832031 28.207031 L 18.832031 27.546875 L 18.921875 26.710938 L 19.101562 25.964844 L 19.460938 25.304688 L 20 24.734375 L 20.628906 24.339844 L 21.527344 24.03125 L 22.425781 23.898438 L 23.234375 23.898438 L 24.132812 24.078125 L 24.761719 24.339844 L 25.390625 24.78125 L 25.929688 25.351562 L 26.109375 25.878906 L 26.289062 26.582031 L 26.378906 27.285156 L 26.289062 27.945312 L 26.199219 28.558594 L 26.019531 29.042969 L 25.300781 29.832031 L 24.761719 30.140625 L 24.042969 30.40625 L 23.503906 30.535156 L 22.964844 30.667969 L 22.425781 30.710938 L 21.886719 30.710938 L 21.617188 30.578125 " transform="matrix(1,0,0,-1,0,63.75)"/>
<path style="fill:none;stroke-width:2.26;stroke-linecap:round;stroke-linejoin:round;stroke:rgb(0%,0%,0%);stroke-opacity:1;stroke-miterlimit:10;" d="M 46.234375 29.789062 L 45.964844 29.832031 L 45.605469 29.570312 L 45.335938 29.304688 L 44.976562 29 L 44.796875 28.777344 L 44.4375 28.074219 L 44.257812 27.679688 L 44.078125 27.152344 L 44.078125 26.710938 L 44.167969 26.1875 L 44.4375 25.703125 L 44.796875 25.175781 L 45.246094 24.824219 L 45.785156 24.472656 L 46.414062 24.339844 L 47.132812 24.25 L 48.121094 24.296875 L 49.109375 24.429688 L 49.917969 24.648438 L 50.636719 25 L 51.175781 25.351562 L 51.445312 25.878906 L 51.714844 26.582031 L 51.714844 27.371094 L 51.535156 28.117188 L 51.355469 28.648438 L 51.085938 29.085938 L 50.726562 29.351562 L 50.277344 29.570312 L 49.828125 29.746094 L 49.289062 29.875 L 48.839844 30.054688 L 48.480469 30.140625 L 48.210938 30.273438 " transform="matrix(1,0,0,-1,0,63.75)"/>
<path style="fill:none;stroke-width:2.26;stroke-linecap:round;stroke-linejoin:round;stroke:rgb(0%,0%,0%);stroke-opacity:1;stroke-miterlimit:10;" d="M 14.070312 20.648438 L 13.890625 20.824219 L 14.160156 20.867188 L 14.609375 20.78125 L 15.507812 20.648438 L 16.585938 20.515625 L 19.101562 20.164062 L 20.269531 20.078125 L 21.527344 20.03125 L 22.425781 20.03125 L 23.503906 20.078125 L 24.3125 20.121094 L 25.300781 20.210938 L 26.289062 20.253906 L 27.1875 20.296875 L 29.34375 20.296875 L 31.320312 20.210938 L 32.308594 20.121094 L 33.117188 19.988281 L 34.285156 19.902344 L 35.722656 19.8125 L 37.070312 19.769531 L 38.417969 19.679688 L 39.496094 19.636719 L 40.304688 19.59375 L 41.292969 19.550781 L 42.460938 19.507812 L 43.988281 19.460938 L 45.605469 19.460938 L 47.222656 19.550781 L 48.929688 19.679688 L 50.457031 19.769531 L 51.984375 19.902344 L 53.421875 19.902344 L 54.679688 19.988281 L 55.847656 19.988281 L 56.835938 20.078125 L 57.554688 20.121094 L 58.003906 20.210938 L 58.453125 20.253906 L 58.722656 20.339844 L 58.992188 20.382812 L 59.261719 20.429688 " transform="matrix(1,0,0,-1,0,63.75)"/>
<path style="fill:none;stroke-width:2.26;stroke-linecap:round;stroke-linejoin:round;stroke:rgb(0%,0%,0%);stroke-opacity:1;stroke-miterlimit:10;" d="M 20.269531 18.890625 L 20.269531 17.308594 L 20.179688 15.683594 L 20.179688 14.011719 L 20.089844 12.648438 L 20.089844 11.464844 " transform="matrix(1,0,0,-1,0,63.75)"/>
<path style="fill:none;stroke-width:2.26;stroke-linecap:round;stroke-linejoin:round;stroke:rgb(0%,0%,0%);stroke-opacity:1;stroke-miterlimit:10;" d="M 29.703125 19.15625 L 29.703125 16.738281 L 29.613281 15.683594 L 29.433594 14.496094 L 29.34375 13.398438 L 29.253906 12.429688 L 29.253906 11.859375 " transform="matrix(1,0,0,-1,0,63.75)"/>
<path style="fill:none;stroke-width:2.26;stroke-linecap:round;stroke-linejoin:round;stroke:rgb(0%,0%,0%);stroke-opacity:1;stroke-miterlimit:10;" d="M 39.40625 17.617188 L 39.496094 17.835938 L 39.675781 17.484375 L 39.675781 12.34375 " transform="matrix(1,0,0,-1,0,63.75)"/>
<path style="fill:none;stroke-width:2.26;stroke-linecap:round;stroke-linejoin:round;stroke:rgb(0%,0%,0%);stroke-opacity:1;stroke-miterlimit:10;" d="M 47.492188 19.375 L 47.671875 18.363281 L 47.671875 13.792969 L 47.761719 12.78125 L 47.941406 12.519531 " transform="matrix(1,0,0,-1,0,63.75)"/>
<path style="fill:none;stroke-width:2.26;stroke-linecap:round;stroke-linejoin:round;stroke:rgb(0%,0%,0%);stroke-opacity:1;stroke-miterlimit:10;" d="M 55.128906 19.109375 L 55.039062 18.363281 L 55.039062 17.175781 L 55.128906 15.550781 L 55.21875 13.882812 L 55.398438 12.648438 L 55.488281 11.945312 " transform="matrix(1,0,0,-1,0,63.75)"/>
<path style="fill:none;stroke-width:2.26;stroke-linecap:round;stroke-linejoin:round;stroke:rgb(0%,0%,0%);stroke-opacity:1;stroke-miterlimit:10;" d="M 13.261719 16.34375 L 13.441406 16.121094 L 13.800781 16.078125 L 14.429688 16.121094 L 15.058594 16.210938 L 15.867188 16.253906 L 16.765625 16.296875 L 17.753906 16.253906 L 18.921875 16.164062 L 20.089844 16.035156 L 21.167969 15.902344 L 22.15625 15.8125 L 23.144531 15.683594 L 24.042969 15.640625 L 24.941406 15.550781 L 26.648438 15.550781 L 27.457031 15.640625 L 28.355469 15.726562 L 29.253906 15.769531 L 30.152344 15.859375 L 31.140625 15.8125 L 31.949219 15.726562 L 32.847656 15.640625 L 33.925781 15.550781 L 35.003906 15.507812 L 39.585938 15.507812 L 40.035156 15.550781 L 41.652344 15.550781 L 42.28125 15.640625 L 44.257812 15.726562 L 45.335938 15.769531 L 46.414062 15.726562 L 47.3125 15.683594 L 48.121094 15.726562 L 48.839844 15.769531 L 49.289062 15.769531 L 49.828125 15.8125 L 50.457031 15.859375 L 50.996094 15.902344 L 51.445312 15.902344 L 51.894531 15.945312 L 52.164062 15.992188 L 52.703125 16.035156 L 54.5 16.035156 L 55.667969 16.121094 L 56.925781 16.164062 L 57.824219 16.253906 L 58.542969 16.34375 L 59.082031 16.429688 L 59.441406 16.429688 " transform="matrix(1,0,0,-1,0,63.75)"/>
</g>
</svg>
